<svg width="60" height="60" viewBox="0 0 60 60" fill="none" xmlns="http://www.w3.org/2000/svg">
<g id="Group 1928">
<g id="Rectangle 268" filter="url(#filter0_d_185_637)">
<rect x="6" y="4" width="48" height="48" rx="14" fill="#2E2E2E" fill-opacity="0.61" shape-rendering="crispEdges"/>
</g>
<g id="Group 1924">
<path id="Rectangle 238" d="M10.8032 24.6121C10.8032 17.1583 10.8032 13.4315 13.1188 11.1159C15.4344 8.80029 19.1613 8.80029 26.615 8.80029H33.3915C40.8452 8.80029 44.5721 8.80029 46.8876 11.1159C49.2032 13.4315 49.2032 17.1583 49.2032 24.6121V31.3885C49.2032 38.8423 49.2032 42.5691 46.8876 44.8847C44.5721 47.2003 40.8452 47.2003 33.3915 47.2003H26.615C19.1613 47.2003 15.4344 47.2003 13.1188 44.8847C10.8032 42.5691 10.8032 38.8423 10.8032 31.3885V24.6121Z" fill="#3D3D3D"/>
<g id="DOC">
<path id="Vector" d="M36.0857 22.4236C36.7842 22.4236 37.2201 21.9361 37.2342 21.1486H38.5842C38.5842 22.6814 37.6279 23.6189 36.0904 23.6189C34.417 23.6189 33.4326 22.5736 33.4326 20.7924V19.4096C33.4326 17.6283 34.417 16.583 36.0904 16.583C37.6467 16.583 38.5701 17.5158 38.5795 19.1143H37.2295C37.2154 18.3033 36.7561 17.7783 36.067 17.7783C35.2467 17.7783 34.8154 18.3408 34.8154 19.4096V20.7924C34.8154 21.8658 35.2467 22.4236 36.0857 22.4236Z" fill="#E6E6E6"/>
<path id="Vector_2" d="M32.5986 20.6189C32.5986 22.4986 31.6189 23.6189 29.9971 23.6189C28.3752 23.6189 27.3955 22.4986 27.3955 20.6189V19.583C27.3955 17.7033 28.3752 16.583 29.9971 16.583C31.6189 16.583 32.5986 17.7033 32.5986 19.583V20.6189ZM29.9971 22.4377C30.8127 22.4377 31.2439 21.8236 31.2439 20.6049V19.5971C31.2439 18.3783 30.8127 17.7643 29.9971 17.7643C29.1814 17.7643 28.7502 18.3783 28.7502 19.5971V20.6049C28.7502 21.8236 29.1814 22.4377 29.9971 22.4377Z" fill="#E6E6E6"/>
<path id="Vector_3" d="M21.6641 16.719H23.8344C25.7281 16.719 26.7172 17.8627 26.7172 20.0518C26.7172 22.3206 25.7422 23.4831 23.8344 23.4831H21.6641V16.719ZM22.9953 17.8674V22.3346H23.6516C24.8234 22.3346 25.3578 21.6315 25.3578 20.0752C25.3578 18.5846 24.8047 17.8674 23.6516 17.8674H22.9953Z" fill="#E6E6E6"/>
</g>
<g id="Group 1903">
<path id="Rectangle 203" d="M22.0972 29.1301C22.0972 28.8183 22.35 28.5654 22.6619 28.5654H36.7795C37.0914 28.5654 37.3442 28.8183 37.3442 29.1301V29.8078C37.3442 30.1197 37.0914 30.3725 36.7795 30.3725H22.6619C22.35 30.3725 22.0972 30.1197 22.0972 29.8078V29.1301Z" fill="url(#paint0_linear_185_637)"/>
<path id="Rectangle 204" d="M22.0972 33.3091C22.0972 32.9972 22.35 32.7444 22.6619 32.7444H36.7795C37.0914 32.7444 37.3442 32.9972 37.3442 33.3091V33.9867C37.3442 34.2986 37.0914 34.5514 36.7795 34.5514H22.6619C22.35 34.5514 22.0972 34.2986 22.0972 33.9867V33.3091Z" fill="url(#paint1_linear_185_637)"/>
<path id="Rectangle 205" d="M22.0972 37.488C22.0972 37.1762 22.35 36.9233 22.6619 36.9233H30.5678C30.8796 36.9233 31.1325 37.1762 31.1325 37.488V38.1657C31.1325 38.4776 30.8796 38.7304 30.5678 38.7304H22.6619C22.35 38.7304 22.0972 38.4776 22.0972 38.1657V37.488Z" fill="url(#paint2_linear_185_637)"/>
</g>
</g>
</g>
<defs>
<filter id="filter0_d_185_637" x="0" y="0" width="60" height="60" filterUnits="userSpaceOnUse" color-interpolation-filters="sRGB">
<feFlood flood-opacity="0" result="BackgroundImageFix"/>
<feColorMatrix in="SourceAlpha" type="matrix" values="0 0 0 0 0 0 0 0 0 0 0 0 0 0 0 0 0 0 127 0" result="hardAlpha"/>
<feOffset dy="2"/>
<feGaussianBlur stdDeviation="3"/>
<feComposite in2="hardAlpha" operator="out"/>
<feColorMatrix type="matrix" values="0 0 0 0 0.108391 0 0 0 0 0.118443 0 0 0 0 0.137956 0 0 0 0.2 0"/>
<feBlend mode="normal" in2="BackgroundImageFix" result="effect1_dropShadow_185_637"/>
<feBlend mode="normal" in="SourceGraphic" in2="effect1_dropShadow_185_637" result="shape"/>
</filter>
<linearGradient id="paint0_linear_185_637" x1="22.0034" y1="28.7495" x2="25.981" y2="36.5545" gradientUnits="userSpaceOnUse">
<stop stop-color="#3091D7"/>
<stop offset="1" stop-color="#30D7D7"/>
</linearGradient>
<linearGradient id="paint1_linear_185_637" x1="22.0034" y1="32.9284" x2="25.981" y2="40.7335" gradientUnits="userSpaceOnUse">
<stop stop-color="#3091D7"/>
<stop offset="1" stop-color="#30D7D7"/>
</linearGradient>
<linearGradient id="paint2_linear_185_637" x1="22.0416" y1="37.1074" x2="26.9023" y2="42.7594" gradientUnits="userSpaceOnUse">
<stop stop-color="#3091D7"/>
<stop offset="1" stop-color="#30D7D7"/>
</linearGradient>
</defs>
</svg>
