<svg width="60" height="60" viewBox="0 0 60 60" fill="none" xmlns="http://www.w3.org/2000/svg">
<g filter="url(#filter0_d_215_835)">
<rect x="6" y="4" width="48" height="48" rx="14" fill="#2E2E2E"/>
</g>
<path d="M10.8032 24.6121C10.8032 17.1583 10.8032 13.4315 13.1188 11.1159C15.4344 8.80029 19.1613 8.80029 26.615 8.80029H33.3915C40.8452 8.80029 44.5721 8.80029 46.8876 11.1159C49.2032 13.4315 49.2032 17.1583 49.2032 24.6121V31.3885C49.2032 38.8423 49.2032 42.5691 46.8876 44.8847C44.5721 47.2003 40.8452 47.2003 33.3915 47.2003H26.615C19.1613 47.2003 15.4344 47.2003 13.1188 44.8847C10.8032 42.5691 10.8032 38.8423 10.8032 31.3885V24.6121Z" fill="#3D3D3D"/>
<path d="M35.3169 23.4826H33.981V16.7185H38.256V17.8669H35.3169V19.6998H37.9888V20.8013H35.3169V23.4826Z" fill="#E6E6E6"/>
<path d="M27.606 16.7185H29.7763C31.67 16.7185 32.6591 17.8623 32.6591 20.0513C32.6591 22.3201 31.6841 23.4826 29.7763 23.4826H27.606V16.7185ZM28.9372 17.8669V22.3341H29.5935C30.7653 22.3341 31.2997 21.631 31.2997 20.0748C31.2997 18.5841 30.7466 17.8669 29.5935 17.8669H28.9372Z" fill="#E6E6E6"/>
<path d="M21.8062 16.7185H24.2812C25.7015 16.7185 26.6015 17.6138 26.6015 19.0341C26.6015 20.4404 25.6733 21.3357 24.2155 21.3357H23.1374V23.4826H21.8062V16.7185ZM23.1374 17.8107V20.2388H23.9437C24.8155 20.2388 25.2515 19.8404 25.2515 19.0248C25.2515 18.2138 24.8155 17.8107 23.9437 17.8107H23.1374Z" fill="#E6E6E6"/>
<path d="M36.2904 35.1911C36.0729 34.7867 35.5302 34.5845 34.6065 34.5845C34.0638 34.5845 33.4114 34.6346 32.6513 34.7867C31.564 33.7256 30.4787 32.1601 29.6627 30.6445C30.4228 27.5634 29.934 26.9569 29.7704 26.7547C29.6068 26.5525 29.3355 26.4004 29.0103 26.4004C28.9025 26.4004 28.7389 26.4004 28.6292 26.4505C28.304 26.5506 28.0307 26.8048 27.8691 27.1071C27.4341 27.9678 27.9768 29.5334 28.5753 30.6946C28.0845 32.5644 27.2166 34.7867 26.3468 36.6063C24.1183 37.5653 22.9232 38.4761 22.8155 39.385C22.7616 39.6874 22.8693 40.1938 23.4678 40.5982C23.6314 40.6984 23.8489 40.8004 24.0105 40.8004C24.4993 40.8004 25.0419 40.4461 25.6405 39.6392C26.0754 39.0827 26.5642 38.2758 27.053 37.3149C28.6291 36.6583 30.5843 36.1018 32.2682 35.7493C33.1919 36.5581 34.0059 37.0126 34.768 37.0126C35.3107 37.0126 35.7456 36.8104 36.0728 36.3559C36.398 35.8978 36.5078 35.4953 36.2904 35.1911ZM24.0642 39.8396C23.7929 39.6374 23.7929 39.4853 23.7929 39.4853C23.8467 39.183 24.3355 38.6265 25.5864 37.9698C24.6627 39.5873 24.174 39.8396 24.0642 39.8396ZM28.7367 27.4616C28.7905 27.3615 28.8444 27.3615 28.9003 27.3095H28.9541C29.0619 27.4097 29.1716 27.9161 28.9541 29.0773C28.7367 28.4225 28.5751 27.7658 28.7367 27.4616ZM27.6513 36.1C28.2499 34.7867 28.7926 33.3213 29.2274 31.9579C29.8798 33.069 30.6938 34.13 31.456 34.9889C30.2589 35.2411 28.9003 35.6456 27.6513 36.1ZM35.2568 35.7976C35.0932 36.0499 34.8758 36.0499 34.768 36.0499C34.4428 36.0499 34.0079 35.8477 33.573 35.5454C33.954 35.4953 34.3331 35.4953 34.6044 35.4953C35.1471 35.4953 35.3646 35.5454 35.4204 35.5955C35.3666 35.6455 35.3665 35.6975 35.2568 35.7976Z" fill="url(#paint0_linear_215_835)"/>
<defs>
<filter id="filter0_d_215_835" x="0" y="0" width="60" height="60" filterUnits="userSpaceOnUse" color-interpolation-filters="sRGB">
<feFlood flood-opacity="0" result="BackgroundImageFix"/>
<feColorMatrix in="SourceAlpha" type="matrix" values="0 0 0 0 0 0 0 0 0 0 0 0 0 0 0 0 0 0 127 0" result="hardAlpha"/>
<feOffset dy="2"/>
<feGaussianBlur stdDeviation="3"/>
<feComposite in2="hardAlpha" operator="out"/>
<feColorMatrix type="matrix" values="0 0 0 0 0.108391 0 0 0 0 0.118443 0 0 0 0 0.137956 0 0 0 0.2 0"/>
<feBlend mode="normal" in2="BackgroundImageFix" result="effect1_dropShadow_215_835"/>
<feBlend mode="normal" in="SourceGraphic" in2="effect1_dropShadow_215_835" result="shape"/>
</filter>
<linearGradient id="paint0_linear_215_835" x1="24.0032" y1="26.4004" x2="34.4032" y2="40.8004" gradientUnits="userSpaceOnUse">
<stop stop-color="#C51717"/>
<stop offset="1" stop-color="#FF49B6"/>
</linearGradient>
</defs>
</svg>
