<?xml version="1.0" encoding="iso-8859-1"?>
<!-- Uploaded to: SVG Repo, www.svgrepo.com, Generator: SVG Repo Mixer Tools -->
<svg height="22px" width="22px" version="1.1" id="Layer_1" xmlns="http://www.w3.org/2000/svg" xmlns:xlink="http://www.w3.org/1999/xlink" 
	 viewBox="0 0 511.999 511.999" xml:space="preserve">
<path style="fill:#3C9684;" d="M275.963,475.985c26.784,1.738,53.728,2.074,80.491-0.208c25.93-2.21,52.325-6.581,76.471-16.629
	c5.821-2.423,11.467-5.213,16.979-8.272c5.407-2.999,10.779-6.184,15.676-9.973c9.402-7.277,17.321-16.523,22.666-27.172
	c5.646-11.247,8.406-23.721,9.025-36.241c0.593-11.988-0.916-23.983-7.246-34.409c-11.982-19.735-35.578-29.264-56.794-35.294
	c-25.158-7.15-51.368-10.368-77.352-12.743c-20.945-1.913-41.953-3.107-62.957-4.15c-9.288-0.462-18.576-0.912-27.864-1.361
	c-7.372-0.355-14.756-0.308-22.134-0.485c-13.322-0.32-26.642-0.869-39.945-1.648c-26.597-1.559-53.252-3.874-79.543-8.284
	c-10.88-1.825-21.654-3.888-32.17-7.283c-12.219-3.946-24.111-9.04-35.33-15.289c-21.09-11.746-41.189-28.455-50.479-51.358
	c-4.73-11.659-6.5-24.832-4.856-37.319c1.564-11.872,6.791-22.898,14.689-31.864c10.398-11.807,24.492-19.384,38.899-25.161
	c23.855-9.567,49.93-13.778,75.486-15.185c16.103-0.887,32.353-0.721,48.431,0.633c21.926,1.848,43.782,4.437,65.635,6.999
	c26.699,3.131,53.394,6.581,80.179,8.901c13.315,1.154,26.552,2.947,39.843,4.337c13.285,1.389,26.605,2.489,39.951,3.056
	c13.23,0.562,26.517,0.684,39.733-0.276c12.787-0.929,25.799-2.851,37.844-7.397c10.325-3.897,20.093-10.136,26.006-19.69
	c-5.671,11.5-16.563,19.058-28.026,24.075c-12.14,5.312-25.364,8.103-38.431,9.962c-27.073,3.853-54.614,3.773-81.888,2.87
	c-6.858-0.227-13.717-0.499-20.569-0.876c-6.85-0.377-13.668-1.159-20.482-1.929c-5.166-0.584-10.336-1.126-15.504-1.688
	c-21.562-2.343-43.097-4.929-64.639-7.446c-21.016-2.456-42.059-5.118-63.169-6.645c-19.578-1.416-39.368-1.3-58.89,0.772
	c-13.32,1.414-26.655,3.737-39.547,7.41c-9.79,2.789-19.558,6.256-28.59,11.001c-12.781,6.712-24.639,16.055-30.014,29.866
	c-4.489,11.535-3.778,25.223,0.118,36.82c3.738,11.127,10.935,20.816,19.378,28.845c8.823,8.39,19.156,15.146,29.922,20.767
	c11.577,6.045,23.872,10.883,36.476,14.302c4.777,1.295,9.633,2.147,14.484,3.095c6.737,1.315,13.538,2.349,20.335,3.308
	c13.597,1.915,27.266,3.32,40.948,4.458c25.967,2.162,52.037,3.339,78.092,3.606c8.86,0.091,17.722,0.694,26.571,1.134
	c18.434,0.915,36.867,1.845,55.276,3.198c27.318,2.006,54.774,4.726,81.567,10.594c12.684,2.778,25.294,6.282,37.305,11.259
	c11.706,4.852,23.046,11.16,32.343,19.864c9.052,8.476,15.821,19.125,19.073,31.137c3.534,13.055,3.038,27.2,0.787,40.437
	c-2.129,12.516-6.549,24.741-13.363,35.476c-6.746,10.627-15.626,19.694-25.741,27.149c-21.023,15.496-47.443,22.125-72.977,25.477
	c-27.277,3.579-55.088,3.227-82.442,0.677C302.396,479.951,289.132,478.249,275.963,475.985z"/>
<path style="fill:#F2C07E;" d="M245.005,471.344c-69.22-23.323-94.851-71.48-96.386-74.465c-0.036-0.06-0.048-0.109-0.073-0.133
	v-0.012l42.066-18.586l64.181-28.35C254.793,349.798,275.313,402.305,245.005,471.344z"/>
<path style="fill:#F23488;" d="M215.084,403.634c-3.758,1.656-7.517,3.045-11.239,4.181c-0.834,0.266-1.668,0.508-2.501,0.737
	c-22.405,6.199-42.924,2.973-50.96-8.556c-0.012,0-0.012-0.012-0.012-0.024c-0.713-1.003-1.317-2.091-1.825-3.227v-0.012
	L13.345,90.706L55.411,72.12l64.181-28.362l135.201,306.04C262.213,366.571,244.425,390.68,215.084,403.634z"/>
<path style="fill:#D6A86F;" d="M245.005,471.344c-69.22-23.323-94.851-71.48-96.386-74.465c-0.024-0.048-0.048-0.085-0.073-0.133
	v-0.012l42.066-18.586l7.819,17.692C200.232,399.912,225.44,458.28,245.005,471.344z"/>
<path style="fill:#DB2A78;" d="M203.845,407.815c-0.834,0.266-1.668,0.508-2.501,0.737c-22.405,6.199-42.924,2.973-50.96-8.556
	c-0.012,0-0.012-0.012-0.012-0.024c-0.991-1.643-1.559-2.719-1.752-3.094c-0.024-0.048-0.048-0.085-0.073-0.133v-0.012
	L13.345,90.706L55.411,72.12l135.201,306.028l7.819,17.692C198.89,396.879,200.848,401.411,203.845,407.815z"/>
<ellipse transform="matrix(-0.4041 -0.9147 0.9147 -0.4041 31.8246 155.1859)" style="fill:#D6A86F;" cx="66.461" cy="67.227" rx="33.201" ry="58.077"/>
<g>
	<path style="fill:#3C9684;" d="M47.829,84.521c-3.564,0-6.828-2.1-8.286-5.401c-1.556-3.521-0.717-7.642,2.092-10.275
		c5.328-4.995,12.202-9.426,19.879-12.818c7.677-3.391,15.583-5.489,22.861-6.065c3.83-0.307,7.449,1.85,9.005,5.373
		c1.556,3.521,0.717,7.642-2.092,10.275c-5.328,4.995-12.202,9.427-19.879,12.818c-7.677,3.392-15.583,5.489-22.861,6.065
		C48.308,84.511,48.069,84.521,47.829,84.521z"/>
	<path style="fill:#3C9684;" d="M257.017,435.151c-2.574,11.359-6.429,23.492-12.012,36.193v0.012c-0.012,0-0.036-0.012-0.048-0.012
		c-12.52-4.23-23.625-9.269-33.402-14.707c0,0,3.517-7.311,10.646-13.752C229.73,436.117,241.295,430.317,257.017,435.151z"/>
</g>
<path style="fill:#2B7C67;" d="M245.005,471.344h-0.048c-12.52-4.23-23.625-9.269-33.402-14.707c0,0,3.517-7.311,10.646-13.752
	C229.573,455.235,237.682,466.449,245.005,471.344z"/>
</svg>