<svg xmlns="http://www.w3.org/2000/svg" width="35" height="35" shape-rendering="geometricPrecision" text-rendering="geometricPrecision" image-rendering="optimizeQuality" fill-rule="evenodd" clip-rule="evenodd" viewBox="0 0 446 511.568"><path fill="#fff" d="M81.772.188h339.507c8.355 0 15.131 6.775 15.131 15.131 0 96.062.132 157.363.274 215.529.574.482 1.13.99 1.661 1.52l.059.06c4.682 4.689 7.596 11.146 7.596 18.248v46.23c0 7.102-2.914 13.559-7.596 18.248l-.059.059c-.467.467-.954.915-1.455 1.345.148 62.962.27 121.655.27 164.116 0 8.508-3.463 16.225-9.049 21.811-5.585 5.586-13.302 9.049-21.811 9.049H78.394l-1.13-.042c-5.154.066-9.973.087-14.483.03a15.514 15.514 0 01-2.8-.039c-4.588-.094-8.854-.293-12.829-.638l-.496-.044-.295-.025-.566-.052-.219-.023-.631-.062-.144-.016c-8.964-.915-16.338-2.642-22.539-5.72C6.981 497.318.524 484.74.032 462.552l-.014-.602-.004-.327-.009-.773v-.165L0 459.736V81.958h.059C.055 75.48.03 68.996.08 62.519.329 32.531 2.566 15.646 20.016 7.172 31.994 1.028 51.143-.694 81.772.236V.188zm-5.055 15.007v481.231l1.677-.023H406.3c8.662 0 15.73-7.068 15.73-15.729 0-54.753-.085-106.786-.197-157.924-.574.036-1.153.059-1.736.059H297.751c-8.355 0-15.13-6.775-15.13-15.13v-67.776c0-8.356 6.775-15.13 15.13-15.13h122.346c.503 0 1.004.013 1.5.043-.167-67.874-.318-136.25-.318-209.497h-37.284v141.746a2.81 2.81 0 01-.508 1.583 2.753 2.753 0 01-3.834.668l-31.143-21.917-32.71 21.82a2.758 2.758 0 01-4.481-2.154V15.319H81.772a491.646 491.646 0 00-5.11-.131v.007h.055zm-15.13 481.243a244.333 244.333 0 01-6.683-.193c-29.285-1.185-39.774-7.403-39.774-39.178V81.958c0-9.666-.345-20.43.391-30.562.833-11.425 2.521-23.291 13.489-29.881l.26-.151c8.854-5.014 22.351-5.896 32.317-6.169v481.243zm57.563-362.522c-4.876 0-8.833-3.957-8.833-8.834 0-4.876 3.957-8.833 8.833-8.833h137.364c4.877 0 8.834 3.957 8.834 8.833a8.836 8.836 0 01-8.834 8.834H119.15zm0-44.307c-4.876 0-8.833-3.957-8.833-8.833 0-4.877 3.957-8.834 8.833-8.834h137.364a8.836 8.836 0 018.834 8.834c0 4.876-3.957 8.833-8.834 8.833H119.15zm.003 88.615c-4.877 0-8.834-3.957-8.834-8.833s3.957-8.833 8.834-8.833h116.423c4.877 0 8.834 3.957 8.834 8.833s-3.957 8.833-8.834 8.833H119.153zm178.598 61.679h26.763v67.776h-26.763v-67.776zm101.367 24.4c5.24 0 9.487 4.248 9.487 9.488a9.486 9.486 0 01-9.487 9.487 9.488 9.488 0 010-18.975zm-60.354-24.4h81.333c5.926 0 10.773 4.846 10.773 10.773v46.23c0 5.926-4.847 10.773-10.773 10.773h-81.333v-67.776z"/></svg>