<svg width="36" height="36" viewBox="0 0 36 36" fill="none" xmlns="http://www.w3.org/2000/svg">
<g filter="url(#filter0_ii_344_95)">
<rect width="36" height="36" rx="10" fill="#F2CEB4"/>
</g>
<g clip-path="url(#clip0_344_95)">
<path d="M32.5801 17.7885C32.7474 18.4501 32.7414 19.1177 32.5756 19.7747C32.3079 20.8393 31.7634 21.7017 30.6487 22.0286C29.4745 22.3724 28.267 22.0758 27.7225 20.6523C27.6541 20.7374 27.5978 20.8059 27.5431 20.8743C27.0336 21.5176 26.4039 21.9724 25.5811 22.1245C24.5743 22.3115 23.788 21.9404 23.163 21.1648C23.0748 21.0553 22.9942 20.9382 22.909 20.8226C22.5835 21.0583 22.2748 21.3062 21.9448 21.5192C21.271 21.9526 20.5304 22.1853 19.7228 22.1792C18.9076 22.1731 18.2673 21.8294 17.7989 21.1648C17.7229 21.0568 17.6559 20.9428 17.6073 20.8652C17.1145 21.1511 16.6522 21.4872 16.1396 21.7062C14.9245 22.2248 13.7139 22.1777 12.5413 21.5298C12.45 21.4796 12.2888 21.4827 12.19 21.5268C11.2638 21.9465 10.3132 22.2188 9.28207 22.0743C8.42887 21.9541 7.92394 21.4309 7.92851 20.5701C7.93155 19.98 8.0593 19.39 8.10036 18.7983C8.12622 18.4257 8.13686 18.0409 8.07147 17.6759C7.99847 17.2607 7.68669 17.1132 7.28062 17.2197C6.7544 17.3581 6.38635 17.6896 6.13693 18.1626C5.66851 19.0508 5.45102 20.0165 5.25027 20.9884C5.20312 21.2195 5.17271 21.4538 5.12708 21.6849C5.06472 21.9952 4.82595 22.1686 4.53546 22.1229C4.26171 22.0804 4.08073 21.8112 4.137 21.507C4.22673 21.0158 4.32863 20.526 4.42292 20.0348C4.43509 19.9724 4.43813 19.9086 4.44725 19.8325C3.70964 20.3101 2.99027 20.777 2.2709 21.2408C2.11273 21.3427 1.95 21.4416 1.78423 21.5313C1.50287 21.6849 1.21695 21.6135 1.07094 21.3595C0.92494 21.1055 1.00859 20.8363 1.28234 20.6568C2.19638 20.0546 3.10129 19.4371 4.0275 18.8516C4.56436 18.5124 4.74382 18.0531 4.80618 17.4296C4.95978 15.8722 5.17727 14.3194 5.42213 12.7727C5.48448 12.3803 5.6974 11.9849 5.93009 11.6549C6.34529 11.0648 7.00838 10.8686 7.63042 11.0648C8.19618 11.2427 8.61441 11.813 8.64939 12.5005C8.7011 13.5453 8.39997 14.5141 7.97869 15.454C7.87528 15.6851 7.75513 15.9102 7.63346 16.1566C7.76425 16.1901 7.89048 16.2174 8.01367 16.257C8.68437 16.476 9.14976 17.1056 9.14367 17.9238C9.13911 18.5809 9.03113 19.2379 8.97182 19.8949C8.95509 20.0728 8.93532 20.2523 8.93379 20.4302C8.93075 20.9154 9.06763 21.0629 9.57408 21.0948C10.2782 21.1389 10.9383 20.9656 11.5512 20.6994C11.4204 20.2766 11.2349 19.8766 11.1801 19.4599C11.0371 18.3771 11.2866 17.387 12.1002 16.6083C12.6021 16.1277 13.2165 15.933 13.9024 16.079C14.8545 16.2828 15.4035 17.1741 15.2089 18.1763C15.0112 19.1922 14.4195 19.9572 13.6333 20.593C13.5542 20.6568 13.4736 20.7207 13.3701 20.8028C14.0606 21.0918 14.7344 21.107 15.4157 20.9032C16.0636 20.7101 16.6141 20.3511 17.0826 19.8705C17.1495 19.8021 17.2042 19.6728 17.1905 19.5816C17.0217 18.4577 17.081 17.3307 17.2423 16.219C17.3807 15.2608 17.5997 14.3103 17.8506 13.3734C18.0422 12.6586 18.3996 12.0062 18.9684 11.4997C19.8703 10.6998 21.0307 11.0526 21.2984 12.2221C21.3668 12.5217 21.3896 12.8426 21.3668 13.1483C21.233 14.9627 20.6855 16.6433 19.6756 18.1611C19.2939 18.7345 18.8909 19.2957 18.4802 19.8477C18.3723 19.9937 18.3723 20.1017 18.4407 20.2508C18.7722 20.9747 19.3015 21.2637 20.1167 21.1435C21.017 21.0112 21.7303 20.5321 22.3508 19.8964C22.3995 19.8477 22.4254 19.7398 22.4101 19.6713C22.1014 18.3117 22.2748 16.9627 22.5166 15.6197C22.6976 14.6175 22.8618 13.6031 23.344 12.689C23.5447 12.3088 23.7896 11.9377 24.0831 11.6275C24.5029 11.1819 25.0321 10.9735 25.6511 11.2229C26.2944 11.4815 26.5484 12.0047 26.5697 12.6556C26.6047 13.6837 26.3264 14.6586 25.9781 15.6076C25.4215 17.1284 24.7386 18.5885 23.7363 19.8781C23.6861 19.9435 23.674 20.0941 23.7135 20.1671C24.3234 21.3047 25.5173 21.4796 26.4419 20.5777C27.1005 19.9375 27.4457 19.1238 27.7088 18.2691C27.8822 17.7079 28.1392 17.1999 28.5483 16.7786C29.359 15.9467 30.6395 15.7946 31.7117 16.3908C32.6227 16.8973 33.2098 16.8121 33.958 16.0654C34.244 15.7794 34.5132 15.7521 34.7474 15.9832C34.977 16.2083 34.9496 16.4881 34.6698 16.7802C34.1223 17.3596 33.739 17.5436 32.5801 17.7885ZM31.7041 18.7923C31.6722 18.5596 31.6615 18.3208 31.6053 18.0957C31.4836 17.6105 31.2235 17.2242 30.7034 17.1102C30.0829 16.9748 29.5354 17.1071 29.143 17.6425C28.5225 18.4911 28.4449 19.431 28.7263 20.4135C28.8191 20.7359 29.035 20.9838 29.3696 21.0766C29.9658 21.2424 30.5194 21.142 30.9711 20.7055C31.5079 20.1869 31.6615 19.5116 31.7041 18.7923ZM18.0666 18.5489C18.1046 18.5565 18.1441 18.5641 18.1822 18.5717C19.0977 17.3125 19.8688 15.9847 20.1608 14.4243C20.2764 13.8038 20.4543 13.1879 20.3311 12.5506C20.3007 12.3925 20.1927 12.1735 20.0711 12.1324C19.9448 12.0898 19.703 12.1856 19.6057 12.2997C19.3715 12.5765 19.154 12.8837 18.9958 13.2092C18.5761 14.0776 18.4209 15.0251 18.2962 15.968C18.1837 16.8227 18.1396 17.6881 18.0666 18.5489ZM23.2421 18.7056C23.271 18.7116 23.3014 18.7193 23.3303 18.7253C23.4048 18.6113 23.4854 18.4987 23.5554 18.3816C24.2215 17.2684 24.7675 16.0988 25.1629 14.8623C25.3819 14.178 25.5675 13.4844 25.5568 12.7575C25.5538 12.5172 25.5431 12.2632 25.2663 12.1689C25.0032 12.0792 24.8146 12.2617 24.6975 12.4457C24.4481 12.8411 24.1515 13.2411 24.0359 13.6806C23.7531 14.7544 23.5341 15.8463 23.347 16.9414C23.2481 17.5193 23.2725 18.117 23.2421 18.7056ZM5.86166 16.8121C5.91793 16.7802 5.94682 16.7726 5.96203 16.7543C6.70878 15.8676 7.25933 14.8745 7.50114 13.7354C7.58935 13.3172 7.63954 12.8746 7.60913 12.4518C7.57567 12.0031 7.11028 11.8632 6.80003 12.1948C6.63425 12.3727 6.49129 12.6145 6.43958 12.8502C6.28141 13.5772 6.15822 14.3118 6.04872 15.0479C5.9666 15.6228 5.92553 16.2053 5.86166 16.8121ZM12.4987 20.1519C13.2013 19.7321 13.761 19.1983 14.0713 18.4485C14.1656 18.2204 14.2112 17.9558 14.2097 17.7079C14.2081 17.3079 13.9344 17.0417 13.5374 17.0737C13.2895 17.0935 13.0067 17.1786 12.8166 17.3307C12.0789 17.9284 11.9238 19.3428 12.4987 20.1519Z" fill="#A37D62"/>
</g>
<defs>
<filter id="filter0_ii_344_95" x="-0.837148" y="-2.18084" width="37.6743" height="40.3617" filterUnits="userSpaceOnUse" color-interpolation-filters="sRGB">
<feFlood flood-opacity="0" result="BackgroundImageFix"/>
<feBlend mode="normal" in="SourceGraphic" in2="BackgroundImageFix" result="shape"/>
<feColorMatrix in="SourceAlpha" type="matrix" values="0 0 0 0 0 0 0 0 0 0 0 0 0 0 0 0 0 0 127 0" result="hardAlpha"/>
<feOffset dx="0.837148" dy="2.18084"/>
<feGaussianBlur stdDeviation="1.168"/>
<feComposite in2="hardAlpha" operator="arithmetic" k2="-1" k3="1"/>
<feColorMatrix type="matrix" values="0 0 0 0 1 0 0 0 0 0.964792 0 0 0 0 0.911979 0 0 0 1 0"/>
<feBlend mode="normal" in2="shape" result="effect1_innerShadow_344_95"/>
<feColorMatrix in="SourceAlpha" type="matrix" values="0 0 0 0 0 0 0 0 0 0 0 0 0 0 0 0 0 0 127 0" result="hardAlpha"/>
<feOffset dx="-0.837148" dy="-2.18084"/>
<feGaussianBlur stdDeviation="1.168"/>
<feComposite in2="hardAlpha" operator="arithmetic" k2="-1" k3="1"/>
<feColorMatrix type="matrix" values="0 0 0 0 0.510986 0 0 0 0 0.370561 0 0 0 0 0.291572 0 0 0 1 0"/>
<feBlend mode="normal" in2="effect1_innerShadow_344_95" result="effect2_innerShadow_344_95"/>
</filter>
<clipPath id="clip0_344_95">
<rect width="33.9" height="11.1829" fill="white" transform="translate(1 11)"/>
</clipPath>
</defs>
</svg>
