<svg width="40" height="41" viewBox="0 0 40 41" fill="none" xmlns="http://www.w3.org/2000/svg">
 <defs>
  <path id="a" d="M0 0h37.64v37.64H0z">
  </path>
 </defs>
 <g transform="translate(.73 .541)" fill="none" fill-rule="evenodd">
  <mask id="b" fill="#fff">
   <use href="#a">
   </use>
  </mask>
  <path d="M18.744 35.678c-9.33 0-16.893-7.563-16.893-16.894 0-9.33 7.563-16.893 16.893-16.893 9.33 0 16.893 7.563 16.893 16.893 0 9.33-7.563 16.894-16.893 16.894zm9.4-24.086h1.943l-4.985 16.389h-1.944l-3.102-10.198h1.943l2.132 7.004 4.013-13.194zm-14.9 10.194l-3.101-10.195H8.2l3.1 10.195h1.944zm4.928-10.194l-4.987 16.389h1.943l4.987-16.389h-1.943zm.649 26.049c10.394 0 18.82-8.426 18.82-18.821C37.64 8.427 29.215 0 18.82 0S0 8.426 0 18.82s8.426 18.821 18.82 18.821z" fill="#FFF" mask="url(#b)">
  </path>
 </g>
</svg>
